<?xml version="1.0" encoding="UTF-8" standalone="no"?>
<!-- Created with Inkscape (http://www.inkscape.org/) -->

<svg
   width="59.97575mm"
   height="59.977337mm"
   viewBox="0 0 59.97575 59.977337"
   version="1.1"
   id="svg1"
   xml:space="preserve"
   xmlns:inkscape="http://www.inkscape.org/namespaces/inkscape"
   xmlns:sodipodi="http://sodipodi.sourceforge.net/DTD/sodipodi-0.dtd"
   xmlns="http://www.w3.org/2000/svg"
   xmlns:svg="http://www.w3.org/2000/svg"><sodipodi:namedview
     id="namedview1"
     pagecolor="#ffffff"
     bordercolor="#000000"
     borderopacity="0.25"
     inkscape:showpageshadow="2"
     inkscape:pageopacity="0.0"
     inkscape:pagecheckerboard="0"
     inkscape:deskcolor="#d1d1d1"
     inkscape:document-units="mm"><inkscape:page
       x="-5.5716147e-14"
       y="0"
       width="59.975746"
       height="59.977337"
       id="page2"
       margin="0"
       bleed="0" /></sodipodi:namedview><defs
     id="defs1" /><g
     inkscape:label="Layer 1"
     inkscape:groupmode="layer"
     id="layer1"
     transform="translate(-73.45177,-58.339784)"><g
       id="g6"><g
         style="overflow:visible;stroke:#1ed760;stroke-opacity:1"
         id="g1"
         transform="matrix(0.26458333,0,0,0.26458333,73.584057,58.472073)"
         inkscape:export-filename="extension-icon.svg"
         inkscape:export-xdpi="423.50452"
         inkscape:export-ydpi="423.50452"><g
           id="g13"
           style="stroke:#1ed760;stroke-opacity:1">
<path
   d="m 225.68,112.847 c 0,62.324 -50.515,112.839 -112.844,112.839 C 50.522,225.687 0,175.171 0,112.847 0,50.525 50.522,0 112.836,0 175.165,0 225.68,50.525 225.68,112.847 Z"
   id="path15"
   style="stroke:#1ed760;stroke-opacity:1" />
<path
   d="m 151.792,112.847 c 0,21.511 -17.439,38.958 -38.956,38.958 -21.515,0 -38.955,-17.446 -38.955,-38.958 0,-21.517 17.44,-38.956 38.955,-38.956 21.517,0 38.956,17.44 38.956,38.956 z"
   id="path17"
   style="fill:#ffffff;stroke:#1ed760;stroke-opacity:1" />
<path
   d="m 116.866,112.847 c 0,2.227 -1.803,4.032 -4.03,4.032 -2.219,0 -4.029,-1.805 -4.029,-4.032 0,-2.228 1.81,-4.031 4.029,-4.031 2.227,0 4.03,1.804 4.03,4.031 z"
   id="path119"
   style="stroke:#1ed760;stroke-opacity:1" />
							
								<path
   d="M 20.097,66.216 C 30.92,44.729 48.992,27.523 71.101,17.801"
   id="path23"
   style="fill:none;stroke:#1ed760;stroke-width:2.5007;stroke-linecap:round;stroke-linejoin:round;stroke-opacity:1" />
						
							
								<path
   d="m 207.882,154.579 c -10.452,23.771 -29.559,42.877 -53.335,53.329"
   id="path27"
   style="fill:none;stroke:#1ed760;stroke-width:2.5007;stroke-linecap:round;stroke-linejoin:round;stroke-opacity:1" />
					
							
								<path
   d="M 26.954,65.298 C 36.748,47.633 51.837,33.313 70.072,24.469"
   id="path31"
   style="fill:none;stroke:#1ed760;stroke-width:2.5007;stroke-linecap:round;stroke-linejoin:round;stroke-opacity:1" />
			
							
								<path
   d="m 201.246,155.543 c -9.625,19.901 -25.782,36.058 -45.683,45.696"
   id="path35"
   style="fill:none;stroke:#1ed760;stroke-width:2.5007;stroke-linecap:round;stroke-linejoin:round;stroke-opacity:1" />
					
								
									<path
   d="M 31.278,68.092 C 40.793,50.792 55.653,36.846 73.627,28.478"
   id="path41"
   style="fill:none;stroke:#1ed760;stroke-width:2.5007;stroke-linecap:round;stroke-linejoin:round;stroke-opacity:1" />
						
							
								<path
   d="m 197.293,151.87 c -9.156,19.784 -25.053,35.804 -44.745,45.11"
   id="path45"
   style="fill:none;stroke:#1ed760;stroke-width:2.5007;stroke-linecap:round;stroke-linejoin:round;stroke-opacity:1" />
					
							
								<path
   d="m 194.591,145.045 c -7.587,19.257 -21.783,35.187 -39.797,45"
   id="path49"
   style="fill:none;stroke:#1ed760;stroke-width:2.5007;stroke-linecap:round;stroke-linejoin:round;stroke-opacity:1" />
					
							
								<path
   d="M 34.828,72.416 C 43.183,56.334 56.357,43.166 72.436,34.821"
   id="path53"
   style="fill:none;stroke:#1ed760;stroke-width:2.5007;stroke-linecap:round;stroke-linejoin:round;stroke-opacity:1" />
					
							
								<path
   d="m 188.86,145.892 c -7.666,17.616 -21.282,32.054 -38.312,40.767"
   id="path57"
   style="fill:none;stroke:#1ed760;stroke-width:2.5007;stroke-linecap:round;stroke-linejoin:round;stroke-opacity:1" />
					
							
								<path
   d="M 40.22,72.872 C 48.523,57.822 61.372,45.631 76.909,38.142"
   id="path61"
   style="fill:none;stroke:#1ed760;stroke-width:2.5007;stroke-linecap:round;stroke-linejoin:round;stroke-opacity:1" />
					
							
								<path
   d="M 42.851,79.472 C 49.63,65.272 60.61,53.462 74.175,45.638"
   id="path65"
   style="fill:none;stroke:#1ed760;stroke-width:2.5007;stroke-linecap:round;stroke-linejoin:round;stroke-opacity:1" />
					
							
								<path
   d="m 176.435,145.879 c -6.18,11.878 -15.591,21.803 -27.065,28.621"
   id="path69"
   style="fill:none;stroke:#1ed760;stroke-width:2.5007;stroke-linecap:round;stroke-linejoin:round;stroke-opacity:1" />
					
							
								<path
   d="M 50.691,77.164 C 57.516,65.305 67.636,55.582 79.807,49.249"
   id="path73"
   style="fill:none;stroke:#1ed760;stroke-width:2.5007;stroke-linecap:round;stroke-linejoin:round;stroke-opacity:1" />
					
							
								<path
   d="m 169.121,146.979 c -6.206,10.204 -15.102,18.586 -25.704,24.16"
   id="path77"
   style="fill:none;stroke:#1ed760;stroke-width:2.5007;stroke-linecap:round;stroke-linejoin:round;stroke-opacity:1" />
					
							
								<path
   d="M 57.354,77.446 C 63.886,67.225 73.172,58.925 84.158,53.598"
   id="path81"
   style="fill:none;stroke:#1ed760;stroke-width:2.5007;stroke-linecap:round;stroke-linejoin:round;stroke-opacity:1" />
					
							
								<path
   d="m 165.924,141.229 c -4.956,9.247 -12.263,17.055 -21.119,22.623"
   id="path85"
   style="fill:none;stroke:#1ed760;stroke-width:2.5007;stroke-linecap:round;stroke-linejoin:round;stroke-opacity:1" />
					
							
								<path
   d="M 62.042,80.556 C 67.532,71.937 75.145,64.813 84.151,59.925"
   id="path89"
   style="fill:none;stroke:#1ed760;stroke-width:2.5007;stroke-linecap:round;stroke-linejoin:round;stroke-opacity:1" />
					
							
								<path
   d="m 162.674,136.573 c -4.688,9.839 -12.21,18.071 -21.503,23.646"
   id="path93"
   style="fill:none;stroke:#1ed760;stroke-width:2.5007;stroke-linecap:round;stroke-linejoin:round;stroke-opacity:1" />
					
							
								<path
   d="M 64.289,86.57 C 69.394,77.163 77.15,69.403 86.554,64.298"
   id="path97"
   style="fill:none;stroke:#1ed760;stroke-width:2.5007;stroke-linecap:round;stroke-linejoin:round;stroke-opacity:1" />
				
							
								<path
   d="m 156.897,135.563 c -4.337,8.4 -11.005,15.401 -19.152,20.142"
   id="path101"
   style="fill:none;stroke:#1ed760;stroke-width:2.5007;stroke-linecap:round;stroke-linejoin:round;stroke-opacity:1" />
			
							
								<path
   d="m 69.974,87.932 c 5.229,-8.974 13.2,-16.157 22.76,-20.406"
   id="path105"
   style="fill:none;stroke:#1ed760;stroke-width:2.5007;stroke-linecap:round;stroke-linejoin:round;stroke-opacity:1" />
			
							
								<path
   d="m 154.065,129.807 c -4.11,9.957 -11.709,18.104 -21.283,22.904"
   id="path109"
   style="fill:none;stroke:#1ed760;stroke-width:2.5007;stroke-linecap:round;stroke-linejoin:round;stroke-opacity:1" />
				
							
								<path
   d="m 73.236,92.376 c 4.24,-8.186 10.941,-14.89 19.127,-19.13"
   id="path113"
   style="fill:none;stroke:#1ed760;stroke-width:2.5007;stroke-linecap:round;stroke-linejoin:round;stroke-opacity:1" />
				
							
								<path
   d="m 185.226,140.644 c -6.082,15.844 -17.219,29.175 -31.428,38.03"
   id="path117"
   style="fill:none;stroke:#1ed760;stroke-width:2.5007;stroke-linecap:round;stroke-linejoin:round;stroke-opacity:1" />
					</g></g><circle
         style="fill:#000000;fill-opacity:1;stroke:#1ed760;stroke-width:0.406108;stroke-dasharray:none;stroke-opacity:1"
         id="path5"
         cx="103.40788"
         cy="88.307541"
         r="10.001794" /><g
         style="fill:#1ed760;fill-opacity:1;stroke:none;stroke-width:0.341166;stroke-dasharray:none;stroke-opacity:1"
         id="g5"
         transform="matrix(0.9300139,0,0,0.9300139,107.47615,84.23468)"><path
           fill-rule="evenodd"
           clip-rule="evenodd"
           d="m -4.3402651,-3.0981626 c 0.27614,0 0.5,0.223858 0.5,0.5 v 1.30687 c 2.6921996,0.28663 4.81669959,2.47325 5.0067996,5.19313 h 1.4932 c 0.2761,0 0.5,0.22386 0.5,0.5 0,0.27614 -0.2239,0.5 -0.5,0.5 h -1.5112 c -0.27940001,2.6243998 -2.3644,4.7093998 -4.9887996,4.9887998 v 1.5111998 c 0,0.2761 -0.22386,0.5 -0.5,0.5 -0.27614,0 -0.5,-0.2239 -0.5,-0.5 V 9.9086372 c -2.71988,-0.1901 -4.9065,-2.3146 -5.1931299,-5.0067998 h -1.30687 c -0.276142,0 -0.5,-0.22386 -0.5,-0.5 0,-0.27614 0.223858,-0.5 0.5,-0.5 h 1.28886 c 0.1948999,-2.78834 2.4227999,-5.01624 5.2111399,-5.21114 v -1.28886 c 0,-0.276142 0.22386,-0.5 0.5,-0.5 z m 0.5,12.0321998 V 6.4018374 c 0,-0.27614 -0.22386,-0.5 -0.5,-0.5 -0.27614,0 -0.5,0.22386 -0.5,0.5 v 2.5539998 c -2.19483,-0.1851 -3.95778,-1.8872 -4.23656,-4.0539998 h 2.73656 c 0.27614,0 0.5,-0.22386 0.5,-0.5 0,-0.27614 -0.22386,-0.5 -0.5,-0.5 h -2.7583 c 0.19082,-2.26338 1.99492,-4.06747998 4.2583,-4.25829998 V 2.4018374 c 0,0.27614 0.22386,0.5 0.5,0.5 0.27614,0 0.5,-0.22386 0.5,-0.5 v -2.73655998 c 2.1667996,0.27878 3.86889959,2.04172998 4.05399959,4.23655998 H -2.3402651 c -0.27614,0 -0.5,0.22386 -0.5,0.5 0,0.27614 0.22386,0.5 0.5,0.5 h 2.53219959 c -0.2701,2.0990998 -1.93309999,3.7620998 -4.03219959,4.0321998 z"
           fill="#000000"
           id="path1"
           style="fill:none;fill-opacity:1;stroke:#1ed760;stroke-width:0.341166;stroke-dasharray:none;stroke-opacity:1" /></g></g></g></svg>
